<svg width="24" height="23" viewBox="0 0 24 23" fill="none" xmlns="http://www.w3.org/2000/svg">
<path d="M21 6.22925C21 8.07884 19.43 9.58342 17.5 9.58342C15.57 9.58342 14 8.07884 14 6.22925C14 4.37967 15.57 2.87509 17.5 2.87509C19.43 2.87509 21 4.37967 21 6.22925ZM19 11.2988C18.5 11.4234 18 11.5001 17.5 11.5001C16.0421 11.4976 14.6447 10.9414 13.6138 9.9535C12.583 8.96557 12.0026 7.62639 12 6.22925C12 4.8205 12.58 3.54592 13.5 2.59717C13.3185 2.38398 13.0897 2.21227 12.8302 2.09457C12.5707 1.97686 12.2871 1.91611 12 1.91675C10.9 1.91675 10 2.77925 10 3.83342V4.11134C7.03 4.95467 5 7.57092 5 10.5418V16.2918L3 18.2084V19.1668H21V18.2084L19 16.2918V11.2988ZM12 22.0418C13.11 22.0418 14 21.1888 14 20.1251H10C10 20.6334 10.2107 21.1209 10.5858 21.4804C10.9609 21.8398 11.4696 22.0418 12 22.0418Z" fill="#D1D2D1"/>
<circle cx="17.5" cy="6.5" r="3.5" fill="#F32B2B"/>
</svg>
