<svg width="54" height="28" viewBox="0 0 54 28" fill="none" xmlns="http://www.w3.org/2000/svg">
<path d="M6.20081 9.47238V10.3923H2.51296V15.5097C4.2823 15.5014 5.47981 15.4392 6.86379 15.1782L6.9881 16.0898C5.47981 16.3757 4.20357 16.4378 2.21462 16.4378H1.39003V9.47238H6.20081ZM5.61241 13.1685V12.2486H8.52954V8.49448H9.64003V19.0152H8.52954V13.1685H5.61241ZM21.6564 16.7735V17.6934H12.0473V16.7735H16.2738V14.6188H13.1412V9.21133H14.2559V11.0221H19.4106V9.21133H20.5169V14.6188H17.376V16.7735H21.6564ZM14.2559 13.7155H19.4106V11.9171H14.2559V13.7155ZM31.9449 8.49448V18.9945H30.8261V8.49448H31.9449ZM23.3179 16.1809C26.1107 14.855 27.4698 12.9613 27.6894 10.5124H23.8275V9.62569H28.8248C28.8165 12.6961 27.5112 15.3605 23.9063 17.0801L23.3179 16.1809Z" fill="#898A8D"/>
<path d="M48.62 13.6832L43.047 9.03697C42.954 8.95941 42.8305 8.91614 42.702 8.91614C42.5735 8.91614 42.45 8.95941 42.357 9.03697L42.351 9.04222C42.3058 9.07982 42.2697 9.12508 42.2451 9.17525C42.2205 9.22542 42.2078 9.27944 42.2078 9.33403C42.2078 9.38863 42.2205 9.44265 42.2451 9.49282C42.2697 9.54298 42.3058 9.58824 42.351 9.62585L47.599 14.0008L42.351 18.3741C42.3058 18.4117 42.2697 18.457 42.2451 18.5071C42.2205 18.5573 42.2078 18.6113 42.2078 18.6659C42.2078 18.7205 42.2205 18.7745 42.2451 18.8247C42.2697 18.8749 42.3058 18.9201 42.351 18.9577L42.357 18.963C42.45 19.0405 42.5735 19.0838 42.702 19.0838C42.8305 19.0838 42.954 19.0405 43.047 18.963L48.62 14.3167C48.669 14.2759 48.708 14.2267 48.7347 14.1723C48.7614 14.1178 48.7751 14.0592 48.7751 14C48.7751 13.9407 48.7614 13.8821 48.7347 13.8277C48.708 13.7732 48.669 13.7241 48.62 13.6832Z" fill="#898A8D"/>
</svg>
