<svg width="20" height="20" viewBox="0 0 20 20" fill="none" xmlns="http://www.w3.org/2000/svg">
<path d="M13.275 10.4525L6.30875 17.09C6.19251 17.2008 6.03809 17.2626 5.8775 17.2626C5.71691 17.2626 5.56248 17.2008 5.44625 17.09L5.43875 17.0825C5.3822 17.0287 5.33718 16.9641 5.30641 16.8924C5.27565 16.8207 5.25978 16.7436 5.25978 16.6656C5.25978 16.5876 5.27565 16.5104 5.30641 16.4387C5.33718 16.3671 5.3822 16.3024 5.43875 16.2487L11.9987 9.9987L5.43875 3.7512C5.3822 3.69749 5.33718 3.63283 5.30641 3.56116C5.27565 3.4895 5.25978 3.41232 5.25978 3.33433C5.25978 3.25634 5.27565 3.17916 5.30641 3.1075C5.33718 3.03583 5.3822 2.97117 5.43875 2.91745L5.44625 2.90995C5.56248 2.79915 5.71691 2.73733 5.8775 2.73733C6.03809 2.73733 6.19251 2.79915 6.30875 2.90995L13.275 9.54745C13.3363 9.60582 13.385 9.67603 13.4184 9.75381C13.4517 9.83159 13.4689 9.91533 13.4689 9.99995C13.4689 10.0846 13.4517 10.1683 13.4184 10.2461C13.385 10.3239 13.3363 10.3941 13.275 10.4525Z" fill="white"/>
</svg>
