<svg width="18" height="22" viewBox="0 0 18 22" fill="none" xmlns="http://www.w3.org/2000/svg">
<path d="M18 5.22925C18 7.07884 16.43 8.58342 14.5 8.58342C12.57 8.58342 11 7.07884 11 5.22925C11 3.37967 12.57 1.87509 14.5 1.87509C16.43 1.87509 18 3.37967 18 5.22925ZM16 10.2988C15.5 10.4234 15 10.5001 14.5 10.5001C13.0421 10.4976 11.6447 9.94142 10.6138 8.9535C9.58295 7.96557 9.00264 6.62639 9 5.22925C9 3.8205 9.58 2.54592 10.5 1.59717C10.3185 1.38398 10.0897 1.21227 9.83021 1.09457C9.57072 0.976858 9.28709 0.916111 9 0.916753C7.9 0.916753 7 1.77925 7 2.83342V3.11134C4.03 3.95467 2 6.57092 2 9.54175V15.2918L0 17.2084V18.1668H18V17.2084L16 15.2918V10.2988ZM9 21.0418C10.11 21.0418 11 20.1888 11 19.1251H7C7 19.6334 7.21071 20.1209 7.58579 20.4804C7.96086 20.8398 8.46957 21.0418 9 21.0418Z" fill="#D1D2D1"/>
</svg>
